<svg width="24" height="29" viewBox="0 0 24 29" fill="none" xmlns="http://www.w3.org/2000/svg">
<path d="M11 2C12.5188 2 13.75 3.20883 13.75 4.7C13.75 4.7376 13.7448 4.77484 13.7433 4.81206C17.6483 5.45213 20.625 8.78422 20.625 12.8V19.9139C21.4463 20.3809 22 21.2511 22 22.25C22 23.7412 20.7688 24.95 19.25 24.95H15.125C15.125 27.1868 13.2782 29 11 29C8.72183 29 6.875 27.1868 6.875 24.95H2.75C1.23122 24.95 0 23.7412 0 22.25C0 21.2511 0.55367 20.3809 1.375 19.9139V12.8C1.375 8.78467 4.35095 5.45266 8.25537 4.81206C8.25382 4.77486 8.25 4.73758 8.25 4.7C8.25 3.20883 9.48122 2 11 2Z" fill="#08C456"/>
<circle cx="22" cy="2" r="2" fill="#06FA6B"/>
</svg>
