<svg width="390" height="316" viewBox="0 0 390 316" fill="none" xmlns="http://www.w3.org/2000/svg">
<path d="M0 36C0 16.1177 16.1178 0 36 0H354C373.882 0 390 16.1178 390 36V240H0V36Z" fill="white"/>
<path d="M108.41 80.2734H102.797C102.969 80.8281 103.324 81.3516 103.863 81.8438C104.402 82.3359 105.133 82.7578 106.055 83.1094C106.977 83.4609 108.059 83.7031 109.301 83.8359L108.27 86.0625C106.566 85.8516 105.109 85.4453 103.898 84.8438C102.688 84.25 101.762 83.5 101.121 82.5938C100.488 83.5078 99.5703 84.2656 98.3672 84.8672C97.1641 85.4688 95.7227 85.8672 94.043 86.0625L93.0117 83.8359C94.2461 83.7031 95.3164 83.4609 96.2227 83.1094C97.1367 82.7578 97.8633 82.3398 98.4023 81.8555C98.9414 81.3633 99.3008 80.8359 99.4805 80.2734H94.0195V77.7422H108.41V80.2734ZM108.176 76.8516H105.176V64.8516H108.176V76.8516ZM96.4805 65.9297C97.5742 65.9297 98.5664 66.1484 99.457 66.5859C100.348 67.0156 101.047 67.6133 101.555 68.3789C102.062 69.1445 102.316 70.0078 102.316 70.9688C102.316 71.9375 102.062 72.8086 101.555 73.582C101.047 74.3555 100.348 74.9609 99.457 75.3984C98.5664 75.8359 97.5742 76.0547 96.4805 76.0547C95.3867 76.0547 94.3945 75.8359 93.5039 75.3984C92.6133 74.9609 91.9141 74.3555 91.4062 73.582C90.8984 72.8086 90.6445 71.9375 90.6445 70.9688C90.6445 70.0078 90.8984 69.1445 91.4062 68.3789C91.9141 67.6133 92.6133 67.0156 93.5039 66.5859C94.3945 66.1484 95.3867 65.9297 96.4805 65.9297ZM96.4805 68.4375C95.9102 68.4375 95.4023 68.5391 94.957 68.7422C94.5195 68.9375 94.1758 69.2266 93.9258 69.6094C93.6836 69.9844 93.5664 70.4375 93.5742 70.9688C93.5664 71.7812 93.8281 72.418 94.3594 72.8789C94.8984 73.3398 95.6055 73.5781 96.4805 73.5938C97.043 73.5859 97.5391 73.4805 97.9688 73.2773C98.4062 73.0664 98.7461 72.7656 98.9883 72.375C99.2383 71.9766 99.3633 71.5078 99.3633 70.9688C99.3633 70.4453 99.2383 69.9922 98.9883 69.6094C98.7461 69.2266 98.4062 68.9375 97.9688 68.7422C97.5312 68.5391 97.0352 68.4375 96.4805 68.4375ZM119.332 70.6406C119.332 71.8203 119.531 72.9805 119.93 74.1211C120.336 75.2539 120.941 76.2734 121.746 77.1797C122.551 78.0859 123.527 78.7812 124.676 79.2656L123.059 81.6094C121.832 81.0938 120.781 80.3359 119.906 79.3359C119.031 78.3359 118.344 77.168 117.844 75.832C117.352 77.2852 116.66 78.5625 115.77 79.6641C114.879 80.7578 113.824 81.5859 112.605 82.1484L110.895 79.7812C112.035 79.2734 113.008 78.5352 113.812 77.5664C114.625 76.5977 115.234 75.5117 115.641 74.3086C116.055 73.0977 116.262 71.875 116.262 70.6406V69.3281H111.738V66.8906H123.785V69.3281H119.332V70.6406ZM128.918 86.1562H125.895V64.8281H128.918V86.1562ZM154.254 68.9531H157.137V71.4141H154.254V75.4922H151.254V64.8281H154.254V68.9531ZM148.207 74.6953H137.965V65.8359H148.207V74.6953ZM140.918 72.3281H145.254V68.1797H140.918V72.3281ZM154.254 82.1484H143.074V83.5781H154.863V85.9219H140.145V79.9922H151.277V78.6328H140.098V76.3359H154.254V82.1484ZM175.652 68.6953C175.652 69.9062 175.637 70.9648 175.605 71.8711C175.582 72.7695 175.504 73.8164 175.371 75.0117C175.246 76.1992 175.051 77.4922 174.785 78.8906L171.785 78.5859C172.145 76.8047 172.375 75.2031 172.477 73.7812C172.578 72.3594 172.637 70.7812 172.652 69.0469H160.09V66.6797H175.652V68.6953ZM177.527 83.5547H158.074V81.1172H165.035V73.7812H168.012V81.1172H177.527V83.5547ZM201.41 70.9453H204.129V73.4062H201.41V79.3359H198.41V64.8516H201.41V70.9453ZM184.113 76.5938C186.34 76.5938 188.066 76.5781 189.293 76.5469V75.3516C188.121 75.1875 187.199 74.8359 186.527 74.2969C185.863 73.75 185.535 73.0703 185.543 72.2578C185.535 71.6094 185.746 71.0469 186.176 70.5703C186.605 70.0859 187.215 69.7148 188.004 69.457C188.801 69.1992 189.723 69.0703 190.77 69.0703C191.809 69.0703 192.719 69.1992 193.5 69.457C194.289 69.7148 194.898 70.0859 195.328 70.5703C195.766 71.0469 195.988 71.6094 195.996 72.2578C195.988 73.0703 195.652 73.7461 194.988 74.2852C194.332 74.8242 193.426 75.1758 192.27 75.3398V76.4414C194.121 76.3555 195.84 76.2109 197.426 76.0078L197.637 78.0703C195.645 78.4219 193.582 78.6523 191.449 78.7617C189.316 78.8633 186.973 78.9141 184.418 78.9141L184.113 76.5938ZM201.41 86.1562H198.41V82.5H186.832V80.2031H201.41V86.1562ZM196.887 68.5781H184.676V66.3984H189.293V64.6641H192.27V66.3984H196.887V68.5781ZM190.77 71.0625C189.988 71.0625 189.395 71.1602 188.988 71.3555C188.59 71.5508 188.395 71.8516 188.402 72.2578C188.395 72.6406 188.594 72.9414 189 73.1602C189.414 73.3711 190.004 73.4766 190.77 73.4766C191.52 73.4766 192.098 73.3711 192.504 73.1602C192.91 72.9492 193.121 72.6484 193.137 72.2578C193.113 71.4609 192.324 71.0625 190.77 71.0625ZM222.949 80.1797H219.949V64.8516H222.949V80.1797ZM223.512 85.7812H208.652V78.6328H211.676V83.3906H223.512V85.7812ZM211.254 66.2109C212.34 66.2109 213.324 66.4414 214.207 66.9023C215.098 67.3633 215.801 68.0039 216.316 68.8242C216.832 69.6367 217.09 70.5547 217.09 71.5781C217.09 72.6172 216.832 73.5508 216.316 74.3789C215.809 75.1992 215.109 75.8398 214.219 76.3008C213.328 76.7617 212.34 76.9922 211.254 76.9922C210.168 76.9922 209.18 76.7617 208.289 76.3008C207.398 75.8398 206.695 75.1992 206.18 74.3789C205.672 73.5508 205.418 72.6172 205.418 71.5781C205.418 70.5547 205.676 69.6367 206.191 68.8242C206.707 68.0039 207.406 67.3633 208.289 66.9023C209.18 66.4414 210.168 66.2109 211.254 66.2109ZM211.254 68.8125C210.699 68.8047 210.199 68.9141 209.754 69.1406C209.309 69.3594 208.961 69.6797 208.711 70.1016C208.461 70.5234 208.34 71.0156 208.348 71.5781C208.34 72.1562 208.461 72.6602 208.711 73.0898C208.961 73.5117 209.305 73.8359 209.742 74.0625C210.188 74.2812 210.691 74.3906 211.254 74.3906C211.801 74.3906 212.289 74.2812 212.719 74.0625C213.156 73.8359 213.5 73.5117 213.75 73.0898C214.008 72.6602 214.137 72.1562 214.137 71.5781C214.137 71.0156 214.008 70.5234 213.75 70.1016C213.5 69.6797 213.156 69.3594 212.719 69.1406C212.281 68.9141 211.793 68.8047 211.254 68.8125ZM248.191 73.1719H251.332V75.6328H248.191V86.1562H245.238V64.8281H248.191V73.1719ZM243.785 70.4062H231.246V68.0156H236.074V65.1562H239.074V68.0156H243.785V70.4062ZM237.574 71.6016C238.605 71.6016 239.531 71.8203 240.352 72.2578C241.18 72.6875 241.828 73.2891 242.297 74.0625C242.773 74.8359 243.012 75.7109 243.012 76.6875C243.012 77.6641 242.773 78.5391 242.297 79.3125C241.828 80.0859 241.18 80.6914 240.352 81.1289C239.531 81.5586 238.605 81.7734 237.574 81.7734C236.535 81.7734 235.602 81.5586 234.773 81.1289C233.945 80.6914 233.293 80.0859 232.816 79.3125C232.348 78.5391 232.113 77.6641 232.113 76.6875C232.113 75.7109 232.348 74.8359 232.816 74.0625C233.293 73.2891 233.945 72.6875 234.773 72.2578C235.602 71.8203 236.535 71.6016 237.574 71.6016ZM237.574 74.0156C237.074 74.0234 236.625 74.1367 236.227 74.3555C235.836 74.5742 235.527 74.8828 235.301 75.2812C235.082 75.6797 234.973 76.1484 234.973 76.6875C234.973 77.2344 235.082 77.707 235.301 78.1055C235.527 78.5039 235.836 78.8086 236.227 79.0195C236.625 79.2227 237.074 79.3203 237.574 79.3125C238.074 79.3203 238.52 79.2227 238.91 79.0195C239.301 78.8086 239.605 78.5039 239.824 78.1055C240.043 77.707 240.152 77.2344 240.152 76.6875C240.152 76.1484 240.043 75.6797 239.824 75.2812C239.605 74.8828 239.301 74.5742 238.91 74.3555C238.52 74.1367 238.074 74.0234 237.574 74.0156ZM258.949 70.1953C258.949 72.1016 259.254 73.8398 259.863 75.4102C260.473 76.9805 261.457 78.2031 262.816 79.0781L261.199 81.3984C259.48 80.3594 258.25 78.6523 257.508 76.2773C257.109 77.5273 256.582 78.6328 255.926 79.5938C255.27 80.5469 254.473 81.3047 253.535 81.8672L251.707 79.6641C253.199 78.7344 254.293 77.4414 254.988 75.7852C255.691 74.1211 256.043 72.3047 256.043 70.3359V66.6562H258.949V70.1953ZM270.598 86.1562H267.738V64.8281H270.598V86.1562ZM266.121 85.1719H263.332V74.4609H260.566V72.0234H263.332V65.1328H266.121V85.1719ZM292.371 83.6719H272.848V81.2109H277.207V75.9961C276.363 75.4883 275.711 74.8633 275.25 74.1211C274.789 73.3711 274.559 72.5312 274.559 71.6016C274.559 70.4688 274.902 69.4688 275.59 68.6016C276.277 67.7344 277.227 67.0625 278.438 66.5859C279.656 66.1016 281.035 65.8594 282.574 65.8594C284.105 65.8594 285.477 66.1016 286.688 66.5859C287.906 67.0625 288.863 67.7344 289.559 68.6016C290.254 69.4688 290.605 70.4688 290.613 71.6016C290.605 72.5078 290.375 73.332 289.922 74.0742C289.477 74.8086 288.848 75.4297 288.035 75.9375V81.2109H292.371V83.6719ZM282.574 68.2266C281.559 68.2266 280.668 68.3594 279.902 68.625C279.145 68.8906 278.555 69.2773 278.133 69.7852C277.719 70.2852 277.512 70.8906 277.512 71.6016C277.512 72.2891 277.719 72.8867 278.133 73.3945C278.555 73.9023 279.148 74.293 279.914 74.5664C280.68 74.8398 281.566 74.9766 282.574 74.9766C283.574 74.9766 284.457 74.8398 285.223 74.5664C285.988 74.293 286.582 73.9023 287.004 73.3945C287.434 72.8867 287.652 72.2891 287.66 71.6016C287.652 70.8984 287.438 70.293 287.016 69.7852C286.594 69.2773 286 68.8906 285.234 68.625C284.469 68.3594 283.582 68.2266 282.574 68.2266ZM285.012 81.2109V77.0742C284.207 77.2227 283.395 77.2969 282.574 77.2969C281.699 77.2969 280.895 77.2227 280.16 77.0742V81.2109H285.012ZM298.137 78.9141H295.137L294.832 67.0312H298.441L298.137 78.9141ZM296.66 84.2109C296.301 84.2109 295.969 84.1211 295.664 83.9414C295.359 83.7617 295.117 83.5234 294.938 83.2266C294.766 82.9219 294.684 82.5938 294.691 82.2422C294.684 81.8906 294.766 81.5664 294.938 81.2695C295.117 80.9727 295.359 80.7383 295.664 80.5664C295.969 80.3867 296.301 80.2969 296.66 80.2969C296.996 80.2969 297.312 80.3867 297.609 80.5664C297.914 80.7383 298.156 80.9727 298.336 81.2695C298.516 81.5664 298.605 81.8906 298.605 82.2422C298.605 82.5938 298.516 82.9219 298.336 83.2266C298.156 83.5234 297.914 83.7617 297.609 83.9414C297.312 84.1211 296.996 84.2109 296.66 84.2109Z" fill="#00B44B"/>
<rect y="240" width="390" height="76" fill="#13D564"/>
<path d="M125.854 256.965C128.145 256.965 129.867 258.125 129.873 259.883C129.867 261.494 128.508 262.572 126.592 262.783V264.605H130.752V265.836H120.99V264.605H125.104V262.783C123.199 262.566 121.846 261.488 121.846 259.883C121.846 258.125 123.562 256.965 125.854 256.965ZM123.322 259.883C123.322 261.008 124.359 261.635 125.854 261.641C127.354 261.635 128.391 261.008 128.396 259.883C128.391 258.816 127.354 258.154 125.854 258.16C124.359 258.154 123.322 258.816 123.322 259.883ZM139.986 258.57V259.754H132.568V256.543H134.057V258.57H139.986ZM131.35 261.652V260.469H141.111V261.652H131.35ZM132.463 263.445V262.297H139.939V265.133H133.986V265.812H140.268V266.961H132.486V264.055H138.451V263.445H132.463ZM152.912 256.414V260.586H154.482V261.816H152.912V267.078H151.436V256.414H152.912ZM144.439 259.203V258.008H146.854V256.578H148.354V258.008H150.709V259.203H144.439ZM144.873 262.344C144.867 260.855 146.027 259.795 147.604 259.801C149.156 259.795 150.322 260.855 150.322 262.344C150.322 263.832 149.156 264.881 147.604 264.887C146.027 264.881 144.867 263.832 144.873 262.344ZM146.303 262.344C146.303 263.17 146.848 263.662 147.604 263.656C148.348 263.662 148.893 263.17 148.893 262.344C148.893 261.523 148.348 261.02 147.604 261.008C146.848 261.02 146.303 261.523 146.303 262.344ZM163.494 256.742V259.918H157.529V260.809H163.74V262.004H156.018V258.793H161.959V257.949H155.982V256.742H163.494ZM154.857 263.996V262.801H164.619V263.996H160.471V267.102H158.971V263.996H154.857ZM176.936 256.414V267.102H175.424V256.414H176.936ZM168.322 260.961C168.316 258.635 169.506 257.164 171.146 257.164C172.752 257.164 173.947 258.635 173.947 260.961C173.947 263.305 172.752 264.77 171.146 264.77C169.506 264.77 168.316 263.305 168.322 260.961ZM169.764 260.961C169.758 262.549 170.314 263.416 171.146 263.41C171.955 263.416 172.5 262.549 172.506 260.961C172.5 259.379 171.955 258.512 171.146 258.512C170.314 258.512 169.758 259.379 169.764 260.961ZM187.225 257.539V258.711H185.068C185.086 259.801 185.848 260.891 187.564 261.336L186.885 262.508C185.672 262.186 184.834 261.512 184.354 260.656C183.885 261.629 183.029 262.402 181.775 262.777L181.061 261.605C182.777 261.137 183.568 259.93 183.58 258.711H181.436V257.539H183.58V256.367H185.092V257.539H187.225ZM182.455 265.074C182.449 263.779 183.838 263.047 186.111 263.047C188.338 263.047 189.703 263.779 189.709 265.074C189.703 266.334 188.338 267.066 186.111 267.066C183.838 267.066 182.449 266.334 182.455 265.074ZM183.955 265.074C183.943 265.654 184.693 265.941 186.111 265.941C187.494 265.941 188.232 265.654 188.232 265.074C188.232 264.465 187.494 264.195 186.111 264.195C184.693 264.195 183.943 264.465 183.955 265.074ZM188.104 262.848V256.414H189.604V258.945H191.045V260.152H189.604V262.848H188.104ZM200.443 256.414V267.102H198.932V256.414H200.443ZM191.83 260.961C191.824 258.635 193.014 257.164 194.654 257.164C196.26 257.164 197.455 258.635 197.455 260.961C197.455 263.305 196.26 264.77 194.654 264.77C193.014 264.77 191.824 263.305 191.83 260.961ZM193.271 260.961C193.266 262.549 193.822 263.416 194.654 263.41C195.463 263.416 196.008 262.549 196.014 260.961C196.008 259.379 195.463 258.512 194.654 258.512C193.822 258.512 193.266 259.379 193.271 260.961ZM213.674 261.383V262.566H209.783V257.422H213.639V258.629H211.283V261.383H213.674ZM204.65 265.754V264.523H214.377V265.754H204.65ZM205.459 262.566V257.422H209.268V258.629H206.971V261.371C207.803 261.354 208.506 261.289 209.303 261.148L209.432 262.332C208.318 262.555 207.398 262.566 206.127 262.566H205.459ZM219.158 259.32C219.152 261.043 220.043 262.889 221.83 263.633L221.021 264.805C219.768 264.271 218.9 263.211 218.42 261.922C217.939 263.322 217.055 264.494 215.795 265.074L214.939 263.891C216.709 263.1 217.623 261.125 217.623 259.32V258.664H215.361V257.445H221.385V258.664H219.158V259.32ZM222.439 267.078V256.414H223.951V267.078H222.439ZM231.1 256.93C232.74 256.924 233.959 257.967 233.959 259.414C233.959 260.873 232.74 261.91 231.1 261.91C229.471 261.91 228.223 260.873 228.229 259.414C228.223 257.967 229.471 256.924 231.1 256.93ZM229.119 266.797V262.707H230.572V265.578C231.164 265.537 231.721 265.449 232.271 265.273L232.482 266.434C231.586 266.756 230.725 266.797 229.705 266.797H229.119ZM229.693 259.414C229.682 260.199 230.291 260.686 231.1 260.691C231.908 260.686 232.506 260.199 232.506 259.414C232.506 258.635 231.908 258.154 231.1 258.16C230.291 258.154 229.682 258.635 229.693 259.414ZM232.119 263.82V262.719H234.088V261.969H235.541V262.719H237.486V263.82H232.119ZM232.74 265.578C232.729 264.658 233.566 264.066 234.791 264.066C236.01 264.066 236.859 264.658 236.865 265.578C236.859 266.504 236.01 267.084 234.791 267.078C233.561 267.084 232.729 266.504 232.74 265.578ZM234.064 265.578C234.059 265.9 234.369 266.059 234.791 266.059C235.219 266.059 235.523 265.9 235.529 265.578C235.523 265.273 235.219 265.104 234.791 265.098C234.369 265.104 234.059 265.273 234.064 265.578ZM235.119 261.676V256.414H236.619V258.629H238.061V259.859H236.619V261.676H235.119ZM247.775 256.414V267.078H246.369V256.414H247.775ZM238.4 263.809C240.557 262.531 241.506 260.979 241.711 258.887H238.986V257.68H243.193C243.193 258.699 243.082 259.648 242.824 260.527H244.107V256.648H245.502V266.609H244.107V261.711H242.361C241.752 262.93 240.762 263.984 239.244 264.863L238.4 263.809ZM257.314 256.414V260.586H258.885V261.816H257.314V267.078H255.838V256.414H257.314ZM248.842 259.203V258.008H251.256V256.578H252.756V258.008H255.111V259.203H248.842ZM249.275 262.344C249.27 260.855 250.43 259.795 252.006 259.801C253.559 259.795 254.725 260.855 254.725 262.344C254.725 263.832 253.559 264.881 252.006 264.887C250.43 264.881 249.27 263.832 249.275 262.344ZM250.705 262.344C250.705 263.17 251.25 263.662 252.006 263.656C252.75 263.662 253.295 263.17 253.295 262.344C253.295 261.523 252.75 261.02 252.006 261.008C251.25 261.02 250.705 261.523 250.705 262.344ZM268.236 256.414V267.078H266.725V256.414H268.236ZM259.307 264.055C262.061 262.754 263.273 261.066 263.514 258.699H259.881V257.527H265.037C265.031 260.762 263.9 263.451 260.092 265.25L259.307 264.055Z" fill="#E9F2FF"/>
</svg>
