<svg width="239" height="47" viewBox="0 0 239 47" fill="none" xmlns="http://www.w3.org/2000/svg">
<path d="M33.936 24.168L33.792 22.056H32.112C31.68 22.056 31.296 22.008 30.96 21.864C30.96 22.776 30.816 23.736 30.384 24.696C29.136 27.528 26.4 28.008 23.088 27.336C20.88 26.856 18.24 25.8 16.464 24.456C17.712 23.112 18.768 21.864 19.248 20.088C16.512 23.88 13.248 26.088 9.216 27.768C6.096 29.016 3.216 28.056 1.68 25.464C0.192 22.776 1.392 19.752 3.888 18.696C6.192 17.688 7.728 16.68 8.688 15.336H5.568C2.352 15.336 0.96 13.368 0.96 10.632C0.96 7.848 2.352 5.976 5.568 5.736C6.864 5.64 8.208 5.544 9.648 5.496C9.984 2.808 12.768 2.088 16.128 2.088C19.488 2.088 22.32 2.808 22.608 5.496C23.904 5.544 25.152 5.64 26.352 5.736C29.184 5.976 30.576 7.464 30.864 9.72C31.248 9.528 31.68 9.432 32.112 9.432H33.84L33.936 8.376C34.128 5.448 36.672 3.96 40.032 3.96C43.392 3.96 45.888 5.448 46.128 8.376C46.512 13.608 46.512 18.936 46.128 24.168C45.888 27.144 43.392 28.632 40.032 28.632C36.672 28.632 34.128 27.144 33.936 24.168ZM28.512 18.072L29.04 18.36C28.944 17.64 28.896 16.776 28.896 15.768V14.76C28.224 15.144 27.408 15.336 26.352 15.336H23.904C24.912 16.344 26.4 17.16 28.512 18.072ZM46.704 37.272C46.704 43.176 40.656 46.104 25.872 46.104C11.136 46.104 5.088 43.176 5.088 37.272C5.088 31.368 11.136 28.488 25.872 28.488C40.656 28.488 46.704 31.368 46.704 37.272ZM29.136 35.16C27.264 36.456 24.48 36.456 22.608 35.16C23.904 36.264 23.904 37.704 22.608 38.856C24.528 37.464 27.456 37.512 29.328 38.904C27.888 37.752 27.792 36.312 29.136 35.16ZM87.792 13.512H80.88C82.56 14.424 85.536 14.904 89.472 15.336C92.544 15.672 93.696 17.64 93.264 20.232C92.784 23.304 90.768 23.784 87.264 23.64C82.272 23.448 76.176 22.488 72.816 21.048C73.728 20.424 74.592 19.56 75.12 18.552C71.04 22.104 64.416 23.304 57.696 23.784C53.808 24.024 51.456 23.592 50.832 20.856C50.208 18.072 51.312 15.768 54.768 15.336C59.184 14.856 61.92 14.424 63.456 13.512H56.256C53.376 13.512 51.984 11.736 51.984 9.384C51.984 7.032 53.424 5.448 56.256 5.304C59.184 5.16 62.304 5.064 65.52 4.968V3.768C65.52 1.512 68.448 0.743998 72 0.743998C75.6 0.743998 78.48 1.512 78.48 3.768V4.968C81.696 5.064 84.816 5.16 87.792 5.304C90.624 5.448 92.064 7.032 92.064 9.384C92.064 11.832 90.624 13.512 87.792 13.512ZM90.96 32.28H80.88V33.432C80.832 36.072 77.76 36.504 73.392 36.504C71.04 36.504 69.072 36.408 67.728 35.88C67.92 37.272 67.968 38.616 67.776 40.056C68.544 39.24 68.736 38.28 68.736 37.368H87.36C90.24 37.368 92.064 39.192 92.064 41.4C92.064 43.56 90.24 45.096 85.152 45.432C76.56 45.96 67.44 46.008 60.576 45.48C55.44 45.048 52.128 44.472 51.744 41.784C51.456 39.912 51.504 37.128 51.84 35.64C52.32 33.624 56.4 33.192 59.76 33.192C61.632 33.192 64.224 33.384 65.904 34.056C65.856 33.864 65.856 33.672 65.856 33.432V32.28H52.656C50.208 32.28 48.72 30.696 48.72 28.584C48.72 26.52 50.208 24.888 52.656 24.888H91.392C93.84 24.888 95.328 26.52 95.328 28.584C95.328 30.696 93.408 32.28 90.96 32.28ZM126.768 8.376V9.048C126.768 12.6 131.376 17.016 136.896 18.648C140.304 19.704 141.36 22.488 140.64 25.752C139.872 28.824 136.992 30.648 133.104 29.736C129.792 28.968 124.176 26.424 120.864 23.16C121.2 22.392 121.824 21.672 122.208 19.224C121.68 20.472 120.72 21.768 120.048 22.488C116.976 25.896 110.832 29.4 105.648 30.456C102.24 31.176 99.552 29.016 98.88 25.752C98.112 22.008 99.984 19.512 103.2 18.696C108.72 17.304 113.28 13.08 113.28 9.048V8.376C113.28 5.928 115.344 3.576 120 3.576C124.656 3.576 126.768 5.928 126.768 8.376ZM102.24 32.472H137.712C141.024 32.472 143.28 34.968 143.28 38.232C143.28 41.544 141.024 43.896 137.712 44.088C126.048 44.664 114.144 44.664 102.24 44.088C98.928 43.896 96.72 41.544 96.72 38.232C96.72 34.968 98.928 32.472 102.24 32.472ZM189.696 40.968C189.552 43.704 187.296 45.096 184.56 45.096C181.872 45.096 179.52 43.704 179.424 40.968C179.088 29.928 179.088 19.032 179.424 8.04C179.52 5.304 181.872 3.912 184.56 3.912C187.296 3.912 189.552 5.304 189.696 8.04C190.224 19.032 190.224 29.976 189.696 40.968ZM167.664 30.264H165.984C165.072 30.264 164.352 29.976 163.776 29.208C161.952 34.776 159.12 38.712 155.712 41.448C153.264 43.416 149.904 43.656 147.552 40.584C145.968 38.568 147.072 35.112 148.992 33.192C150.576 31.608 151.872 29.832 152.88 27.912C151.824 28.056 150.72 28.104 149.568 28.104C146.256 28.104 145.296 25.704 145.296 23.016C145.296 20.28 146.256 17.88 149.568 17.88C151.728 17.88 153.648 17.88 155.664 17.736C155.76 16.68 155.808 15.624 155.808 14.472V11.448C155.424 12.84 155.136 14.088 155.136 15.528H150.288C147.312 15.528 145.728 13.368 145.728 10.104C145.728 6.84 147.36 5.16 150.288 4.632C154.512 3.864 157.824 3.768 161.664 4.632C164.352 5.256 166.224 6.936 166.224 11.64C166.224 13.752 166.128 15.768 165.984 17.64H167.664C167.712 14.52 167.808 11.4 167.904 8.184C168 5.448 170.304 4.056 172.992 4.056C175.632 4.056 177.984 5.448 178.08 8.184C178.416 19.08 178.416 29.448 178.08 40.44C177.984 43.176 175.632 44.568 172.992 44.568C170.304 44.568 168 43.176 167.904 40.44C167.808 36.984 167.712 33.624 167.664 30.264ZM218.88 18.264H214.464V18.36C214.464 24.6 218.352 28.152 222.384 32.04C225.408 35.016 224.496 39 222 41.064C219.024 43.512 214.656 43.032 212.544 40.872C211.056 39.384 209.808 37.944 209.28 37.08C210.048 35.64 210.528 34.248 210.672 32.04C209.28 35.496 207.072 38.52 204.432 41.112C202.128 43.416 198 43.704 194.784 41.496C192.096 39.672 191.328 35.4 194.4 32.472C198.576 28.488 202.272 24.6 202.272 18.36V18.264H197.856C194.976 18.264 192.96 15.624 192.96 12.36C192.96 9.096 194.976 6.504 197.856 6.504H201.888V6.024C201.888 2.904 204.816 2.088 208.368 2.088C211.968 2.088 214.896 2.904 214.896 6.024V6.504H218.88C221.712 6.504 224.016 9.096 224.016 12.36C224.016 15.624 221.712 18.264 218.88 18.264ZM237.648 39.288C237.552 42.84 234.912 44.952 231.552 44.952C228.24 44.952 225.6 42.84 225.456 39.288C225.024 27.864 225.024 20.808 225.456 9.432C225.6 5.832 228.24 3.768 231.552 3.768C234.912 3.768 237.552 5.832 237.648 9.432C238.08 20.712 238.08 27.768 237.648 39.288Z" fill="#00B44B"/>
</svg>
