<svg width="80" height="80" viewBox="0 0 80 80" fill="none" xmlns="http://www.w3.org/2000/svg">
<g filter="url(#filter0_d_834_7103)">
<circle cx="40" cy="35" r="32" fill="#13D564"/>
</g>
<path d="M28 26L33 20" stroke="white" stroke-width="2"/>
<path d="M33 26L38 20" stroke="white" stroke-width="2"/>
<path d="M38 26L43 20" stroke="white" stroke-width="2"/>
<path d="M43 26L48 20" stroke="white" stroke-width="2"/>
<path d="M48 26L53 20" stroke="white" stroke-width="2"/>
<rect x="25" y="20" width="30" height="30" rx="5" stroke="white" stroke-width="2"/>
<path d="M39.9348 44L39.9348 36.5017M39.9348 36.5017C39.9348 36.5017 40.2242 33.0419 37.956 31.7324C36.077 30.6475 33.9675 30.7836 33.2443 32.0363C32.5211 33.2889 33.121 35.1838 35 36.2687C37.2681 37.5782 39.9348 36.5017 39.9348 36.5017ZM39.9348 36.5017C39.9348 36.5017 39.8732 33.0419 42.1413 31.7324C44.0203 30.6475 46.1298 30.7836 46.853 32.0363C47.5763 33.2889 46.879 35.1838 45 36.2687C42.7318 37.5782 39.9348 36.5017 39.9348 36.5017Z" stroke="white" stroke-width="2" stroke-linecap="round" stroke-linejoin="round"/>
<path d="M25 26H55" stroke="white" stroke-width="2"/>
<defs>
<filter id="filter0_d_834_7103" x="0.3" y="0.3" width="79.4" height="79.4" filterUnits="userSpaceOnUse" color-interpolation-filters="sRGB">
<feFlood flood-opacity="0" result="BackgroundImageFix"/>
<feColorMatrix in="SourceAlpha" type="matrix" values="0 0 0 0 0 0 0 0 0 0 0 0 0 0 0 0 0 0 127 0" result="hardAlpha"/>
<feOffset dy="5"/>
<feGaussianBlur stdDeviation="3.85"/>
<feComposite in2="hardAlpha" operator="out"/>
<feColorMatrix type="matrix" values="0 0 0 0 0 0 0 0 0 0 0 0 0 0 0 0 0 0 0.2 0"/>
<feBlend mode="normal" in2="BackgroundImageFix" result="effect1_dropShadow_834_7103"/>
<feBlend mode="normal" in="SourceGraphic" in2="effect1_dropShadow_834_7103" result="shape"/>
</filter>
</defs>
</svg>
