<svg width="129" height="111" viewBox="0 0 129 111" fill="none" xmlns="http://www.w3.org/2000/svg">
<path d="M49.5499 15.8538C49.5422 15.8418 49.5277 15.8193 49.5066 15.7871C49.4645 15.7226 49.3962 15.619 49.3022 15.4827C49.1141 15.2099 48.8255 14.8075 48.4462 14.3209C47.6827 13.3418 46.5749 12.0544 45.1933 10.8062C42.3466 8.23424 38.8235 6.25028 35.0155 6.60263C28.7208 7.18519 24.2644 13.1458 24.572 20.3953C24.6733 22.7814 24.8991 24.2972 25.4243 25.5652C25.9217 26.7659 26.7999 28.0037 28.6645 29.5488C30.703 31.238 33.3708 31.791 36.662 31.3748C39.9916 30.9538 43.6465 29.567 47.1541 27.7746C50.631 25.9978 53.7874 23.9139 56.0883 22.2603C57.2338 21.437 58.1562 20.7286 58.7872 20.2298C59.1025 19.9806 59.3445 19.784 59.5045 19.6526C59.5843 19.5871 59.6438 19.538 59.6817 19.5063C59.7006 19.4905 59.7142 19.4789 59.7223 19.4722C59.7259 19.4691 59.7284 19.4669 59.7297 19.4658L59.8562 19.3638L61.8507 21.9677C59.8842 19.4013 59.8566 19.3642 59.8568 19.3633C59.857 19.363 59.8578 19.3626 59.8583 19.3622C59.8594 19.3614 59.8609 19.3603 59.8626 19.359C59.8661 19.3563 59.871 19.3524 59.877 19.3478C59.8893 19.3384 59.907 19.3253 59.9293 19.3083C59.9742 19.2742 60.039 19.2247 60.1231 19.1614C60.2912 19.0349 60.536 18.852 60.8494 18.6211C61.4762 18.1593 62.3795 17.5043 63.4961 16.723C65.7255 15.1631 68.8249 13.0864 72.291 11.0309C75.7454 8.98233 79.6313 6.9146 83.4251 5.40666C87.1369 3.9313 91.1295 2.83844 94.6686 3.11241C98.1787 3.38416 101.321 4.6003 103.537 7.17819C105.718 9.71542 106.589 13.0974 106.589 16.8683C106.589 24.86 100.395 35.6787 88.372 38.4684C82.9709 39.7216 78.326 38.8851 74.3665 38.2773C70.3434 37.6597 66.8685 37.235 62.7628 38.4241C53.8002 41.0198 45.7441 50.7547 41.318 61.0676C39.1385 66.146 38.0099 70.9941 38.0181 74.6771C38.0269 78.5442 39.2017 79.9525 40.201 80.3708C40.3295 80.4245 40.7573 80.5365 41.7461 80.2608C42.7295 79.9866 43.9718 79.4087 45.4729 78.4994C48.4837 76.6757 51.9205 73.9058 55.5492 70.9199C59.077 68.0171 62.8061 64.8928 66.1304 62.6901C67.7972 61.5858 69.5137 60.6083 71.1798 60.0051C72.7482 59.4372 74.6776 59.0527 76.591 59.6393L76.7762 59.6991L76.9865 59.7744C78.0303 60.1684 78.9613 60.8197 79.6433 61.7739C80.3483 62.7605 80.6164 63.8314 80.6984 64.7436C80.8483 66.4126 80.4094 68.206 80.1161 69.3988C79.8356 70.54 79.6205 71.373 79.5168 72.063C79.5223 72.0602 79.5283 72.058 79.5339 72.055C80.8145 71.3842 82.3286 70.231 84.327 68.7624C86.173 67.4058 88.3898 65.8184 90.6621 64.7948C92.924 63.776 95.84 63.0436 98.7642 64.2791C103.752 66.3863 104.99 71.3549 105.783 73.5303C106.289 74.9181 106.578 75.3406 106.75 75.4887C106.767 75.5041 106.786 75.5255 106.894 75.5469C107.04 75.5755 107.399 75.6081 108.084 75.4726C109.861 75.1212 111.586 76.2774 111.937 78.0547C112.288 79.8319 111.133 81.5576 109.357 81.909C106.729 82.4288 104.337 82.0747 102.46 80.4514C100.849 79.0574 100.093 77.0723 99.6214 75.777C98.4585 72.5855 98.0096 71.0821 96.2131 70.323C95.7453 70.1254 94.9201 70.0717 93.3546 70.7768C91.7997 71.4773 90.1022 72.659 88.2097 74.0498C86.4697 75.3285 84.4205 76.9009 82.5754 77.8673C80.949 78.7191 77.8038 79.9928 75.0929 77.8027C73.0412 76.1449 72.8131 73.7838 72.9111 72.1971C73.0065 70.6541 73.4711 68.9581 73.748 67.8317C73.9557 66.9868 74.0778 66.3897 74.1344 65.963C73.9494 66.0018 73.7111 66.0661 73.4117 66.1745C72.4515 66.5221 71.2317 67.1789 69.7516 68.1596C66.7824 70.1269 63.3748 72.9756 59.7153 75.9868C56.1568 78.915 52.3556 82.0006 48.8699 84.112C47.1229 85.1702 45.3023 86.0797 43.5073 86.5803C41.7182 87.0791 39.652 87.253 37.6696 86.4233C32.9023 84.4278 31.4705 79.3634 31.46 74.6915C31.4491 69.8356 32.8883 64.0786 35.2915 58.4791C40.0311 47.4356 49.1997 35.5217 60.9391 32.1217C66.5365 30.5007 71.2638 31.1634 75.3608 31.7923C79.5216 32.431 82.9154 32.9998 86.8904 32.0774C95.6723 30.0397 100.031 22.0926 100.031 16.8683C100.031 14.0313 99.3727 12.3962 98.5646 11.4559C97.7915 10.5565 96.4865 9.8339 94.1627 9.65397C92.1417 9.49752 89.2831 10.1375 85.8465 11.5035C82.4919 12.8368 78.9318 14.7195 75.6352 16.6744C72.3503 18.6225 69.3938 20.6031 67.2549 22.0996C66.1875 22.8465 65.3279 23.4695 64.7385 23.9037C64.4439 24.1207 64.2169 24.2906 64.0655 24.4045C63.9899 24.4614 63.9333 24.5046 63.8963 24.5326C63.8926 24.5358 63.8886 24.5389 63.8846 24.5423C63.833 24.5853 63.7594 24.6466 63.6647 24.7243C63.4754 24.8797 63.2021 25.1019 62.853 25.3778C62.1552 25.9294 61.1527 26.6992 59.9149 27.5888C57.4487 29.3613 54.002 31.6418 50.1375 33.6167C46.3036 35.5759 41.8779 37.3282 37.4844 37.8838C33.0524 38.4442 28.3544 37.8112 24.4808 34.6013C22.0312 32.5714 20.3756 30.5148 19.3657 28.0768C18.3838 25.7062 18.1286 23.239 18.0198 20.6735C17.6048 10.8972 23.7489 1.05626 34.4119 0.0696179C40.9136 -0.531903 46.2021 2.87756 49.5888 5.93737C51.3237 7.50484 52.6875 9.09325 53.6172 10.2856C54.0845 10.8848 54.4487 11.3921 54.7006 11.7576C54.8267 11.9405 54.9253 12.0885 54.9952 12.1954C55.0302 12.2489 55.0579 12.2923 55.0785 12.3246C55.0888 12.3407 55.0975 12.3541 55.1041 12.3647C55.1074 12.3699 55.1102 12.3747 55.1127 12.3786C55.1138 12.3805 55.1149 12.3823 55.1159 12.3839C55.1163 12.3846 55.1172 12.3856 55.1175 12.386C55.1181 12.387 55.1185 12.3879 52.3993 14.0828L55.1185 12.3882C56.0762 13.9258 55.6063 15.9492 54.0693 16.9072C52.5327 17.8648 50.5111 17.3956 49.5531 15.8592C49.5522 15.8577 49.5512 15.8559 49.5499 15.8538ZM49.5557 15.8629C49.5562 15.8635 49.5563 15.864 49.5563 15.864C49.5561 15.8637 49.5555 15.8626 49.5547 15.8613C49.555 15.8619 49.5555 15.8625 49.5557 15.8629Z" fill="url(#paint0_linear_268_31)"/>
<path d="M85 23C85 24.6569 83.6569 26 82 26C80.3431 26 79 24.6569 79 23C79 21.3431 80.3431 20 82 20C83.6569 20 85 21.3431 85 23Z" fill="#13D564"/>
<path d="M94 17.5C94 18.8807 92.8807 20 91.5 20C90.1193 20 89 18.8807 89 17.5C89 16.1193 90.1193 15 91.5 15C92.8807 15 94 16.1193 94 17.5Z" fill="#13D564"/>
<path d="M22.7445 98.58V99.24H24.3285C24.5325 99.24 24.6885 99.396 24.6885 99.6V100.728C24.6885 100.932 24.5325 101.088 24.3285 101.088H22.7565C22.9365 102.276 23.5365 103.044 24.7365 103.428C24.9885 103.512 25.0725 103.764 24.9165 103.992C24.6045 104.436 24.4965 104.652 24.2085 104.976C24.1245 105.072 23.9565 105.132 23.8245 105.096C22.9605 104.82 22.2285 104.436 21.5565 103.764C20.9445 104.448 20.0925 104.916 19.1925 105.24C19.0605 105.276 18.8805 105.228 18.7965 105.132C18.5205 104.808 18.3045 104.592 18.0285 104.268C17.8485 104.064 17.9205 103.788 18.1605 103.692C19.3725 103.2 20.0925 102.468 20.2965 101.088H18.6285C18.4245 101.088 18.2685 100.932 18.2685 100.728V99.6C18.2685 99.396 18.4245 99.24 18.6285 99.24H20.3205V98.58C20.3205 98.376 20.4765 98.22 20.6805 98.22H22.3845C22.5885 98.22 22.7445 98.376 22.7445 98.58ZM25.6725 98.952H27.3885C27.5925 98.952 27.7485 99.108 27.7485 99.312V104.88C27.7485 105.084 27.5925 105.24 27.3885 105.24H25.6725C25.4685 105.24 25.3125 105.084 25.3125 104.88V102.972H24.2325C24.0285 102.972 23.8725 102.816 23.8725 102.612V101.652C23.8725 101.448 24.0285 101.292 24.2325 101.292H25.3125V99.312C25.3125 99.108 25.4685 98.952 25.6725 98.952ZM25.5765 107.76C25.5765 107.532 25.3965 107.352 25.0485 107.352H21.7845C21.4365 107.352 21.2565 107.532 21.2565 107.76C21.2565 107.988 21.4365 108.168 21.7845 108.168H25.0485C25.3965 108.168 25.5765 107.988 25.5765 107.76ZM28.0005 107.76C28.0005 109.104 26.8245 109.968 25.5045 110.004H21.3285C20.0805 110.004 18.8325 109.152 18.8325 107.76C18.8325 106.38 19.9725 105.552 21.3285 105.516H25.5045C26.7645 105.516 28.0005 106.344 28.0005 107.76ZM35.3475 98.7V99.252H38.3355C38.5395 99.252 38.6955 99.408 38.6955 99.612V100.704C38.6955 100.908 38.5395 101.064 38.3355 101.064H35.7675C36.5715 101.796 37.5555 102.192 38.6955 102.372C38.9715 102.408 39.1035 102.672 38.9595 102.912C38.7075 103.356 38.6235 103.428 38.3955 103.812C38.3355 103.92 38.1675 104.004 38.0355 103.992C36.6435 103.812 35.2875 103.212 34.1475 102.3C33.0555 103.164 31.7115 103.8 30.2715 103.992C30.1395 104.004 29.9715 103.92 29.9115 103.824C29.7195 103.5 29.5875 103.284 29.3595 102.936C29.2035 102.696 29.3235 102.408 29.6115 102.372C30.7155 102.216 31.6755 101.832 32.5275 101.064H29.9235C29.7195 101.064 29.5635 100.908 29.5635 100.704V99.612C29.5635 99.408 29.7195 99.252 29.9235 99.252H32.9595V98.7C32.9595 98.496 33.1155 98.34 33.3195 98.34H34.9875C35.1915 98.34 35.3475 98.496 35.3475 98.7ZM29.3475 104.244H38.9115C39.1155 104.244 39.2715 104.4 39.2715 104.604V105.72C39.2715 105.924 39.1155 106.08 38.9115 106.08H35.7195V107.412C35.7195 107.616 35.5635 107.772 35.3595 107.772H33.6435C33.4395 107.772 33.2835 107.616 33.2835 107.412V106.08H29.3475C29.1435 106.08 28.9875 105.924 28.9875 105.72V104.604C28.9875 104.4 29.1435 104.244 29.3475 104.244ZM38.6955 108.504V109.632C38.6955 109.836 38.5395 109.992 38.3355 109.992H29.9235C29.7195 109.992 29.5635 109.836 29.5635 109.632V107.028C29.5635 106.824 29.7195 106.668 29.9235 106.668H31.6395C31.8435 106.668 31.9995 106.824 31.9995 107.028V108.144H38.3355C38.5395 108.144 38.6955 108.3 38.6955 108.504ZM47.3265 102.888H42.6585C41.1585 102.888 40.1625 102.108 40.1625 100.908C40.1625 100.32 40.3905 99.84 40.8465 99.468C41.3025 99.096 41.9025 98.916 42.6585 98.916H47.3265C48.8505 98.916 49.8225 99.72 49.8225 100.908C49.8225 102.108 48.8505 102.888 47.3265 102.888ZM43.1145 101.124H46.9305C47.2785 101.124 47.4105 101.052 47.4105 100.908C47.4105 100.764 47.2305 100.692 46.8825 100.692H43.1145C42.7665 100.692 42.5865 100.764 42.5865 100.908C42.5865 101.052 42.7665 101.124 43.1145 101.124ZM40.2225 103.152H49.7865C49.9905 103.152 50.1465 103.308 50.1465 103.512V104.448C50.1465 104.652 49.9905 104.808 49.7865 104.808H40.2225C40.0185 104.808 39.8625 104.652 39.8625 104.448V103.512C39.8625 103.308 40.0185 103.152 40.2225 103.152ZM40.7505 105.156H49.1865C49.3905 105.156 49.5465 105.312 49.5465 105.516V107.88C49.5465 108.084 49.3905 108.24 49.1865 108.24H42.8745V108.516H49.2705C49.4745 108.516 49.6305 108.672 49.6305 108.876V109.632C49.6305 109.836 49.4745 109.992 49.2705 109.992H40.7985C40.5945 109.992 40.4385 109.836 40.4385 109.632V107.244C40.4385 107.04 40.5945 106.884 40.7985 106.884H47.1105V106.608H40.7505C40.5465 106.608 40.3905 106.452 40.3905 106.248V105.516C40.3905 105.312 40.5465 105.156 40.7505 105.156ZM59.9638 102.228V102.624C59.9638 104.352 58.6438 105.216 56.9518 105.216C55.3558 105.216 53.9878 104.46 53.8918 102.624V102.228C53.8918 101.928 53.9638 101.556 54.1078 101.112H53.8918C53.6878 101.112 53.5318 100.956 53.5318 100.752V99.66C53.5318 99.456 53.6878 99.3 53.8918 99.3H55.7758V98.592C55.7758 98.388 55.9318 98.232 56.1358 98.232H57.8398C58.0438 98.232 58.1998 98.388 58.1998 98.592V99.3H59.9278C60.1318 99.3 60.2878 99.456 60.2878 99.66V100.752C60.2878 100.956 60.1318 101.112 59.9278 101.112H59.7478C59.8918 101.556 59.9638 101.928 59.9638 102.228ZM57.5278 102.552V102.18C57.5278 101.52 57.2518 101.412 56.9518 101.412C56.6278 101.412 56.3278 101.568 56.3278 102.18V102.552C56.3278 103.164 56.6278 103.32 56.9518 103.32C57.2518 103.32 57.5278 103.188 57.5278 102.552ZM62.9278 99.324V100.944H64.0918C64.2958 100.944 64.4518 101.1 64.4518 101.304V102.648C64.4518 102.852 64.2958 103.008 64.0918 103.008H62.9278V104.892C62.9278 105.096 62.7718 105.252 62.5678 105.252H60.8518C60.6478 105.252 60.4918 105.096 60.4918 104.892V99.324C60.4918 99.12 60.6478 98.964 60.8518 98.964H62.5678C62.7718 98.964 62.9278 99.12 62.9278 99.324ZM54.5878 105.588H62.5678C62.7718 105.588 62.9278 105.744 62.9278 105.948V109.632C62.9278 109.836 62.7718 109.992 62.5678 109.992H54.5878C54.3838 109.992 54.2278 109.836 54.2278 109.632V105.948C54.2278 105.744 54.3838 105.588 54.5878 105.588ZM56.6518 108.12H60.4918V107.46H56.6518V108.12ZM72.72 99.324V109.62C72.72 109.824 72.564 109.98 72.36 109.98H71.076C70.872 109.98 70.716 109.824 70.716 109.62V104.664H70.296C70.14 106.644 69.444 108.552 67.776 109.872C67.62 110.004 67.392 109.968 67.26 109.812C67.14 109.656 67.008 109.524 66.624 109.044C66.516 108.9 66.516 108.684 66.648 108.552C67.836 107.364 68.28 105.672 68.34 103.92V100.848H67.98V103.572C67.98 105.684 67.38 107.472 65.688 109.008C65.544 109.14 65.316 109.128 65.184 108.984C64.896 108.66 64.764 108.492 64.488 108.216C64.356 108.084 64.344 107.856 64.476 107.712C65.58 106.536 65.904 105.396 65.964 103.692V100.848H65.208C65.004 100.848 64.848 100.692 64.848 100.488V99.348C64.848 99.144 65.004 98.988 65.208 98.988H69.972C70.176 98.988 70.332 99.144 70.332 99.348V102.672H70.716V99.324C70.716 99.12 70.872 98.964 71.076 98.964H72.36C72.564 98.964 72.72 99.12 72.72 99.324ZM73.008 109.62V99.324C73.008 99.12 73.164 98.964 73.368 98.964H74.688C74.892 98.964 75.048 99.12 75.048 99.324V109.62C75.048 109.824 74.892 109.98 74.688 109.98H73.368C73.164 109.98 73.008 109.824 73.008 109.62ZM87.6853 107.628H86.0773C85.8253 107.628 85.6453 107.412 85.7293 107.172C85.9333 106.452 85.9933 105.648 85.9933 104.58V100.872H79.6333C79.4293 100.872 79.2733 100.716 79.2733 100.512V99.36C79.2733 99.156 79.4293 99 79.6333 99H88.0813C88.2853 99 88.4413 99.156 88.4413 99.36V104.484C88.4413 105.492 88.4173 106.44 88.0213 107.4C87.9733 107.508 87.8173 107.628 87.6853 107.628ZM79.1293 108.096H88.6333C88.8373 108.096 88.9933 108.252 88.9933 108.456V109.596C88.9933 109.8 88.8373 109.956 88.6333 109.956H79.1293C78.9253 109.956 78.7693 109.8 78.7693 109.596V108.456C78.7693 108.252 78.9253 108.096 79.1293 108.096ZM99.2083 99.324V109.62C99.2083 109.824 99.0523 109.98 98.8483 109.98H97.1443C96.9403 109.98 96.7843 109.824 96.7843 109.62V109.416C96.7243 109.548 96.6523 109.62 96.5443 109.644C95.8723 109.824 95.2603 109.932 94.4803 109.944H90.5563C90.3523 109.944 90.1963 109.788 90.1963 109.584V103.656C90.1963 103.452 90.3523 103.296 90.5563 103.296H93.4483V100.86H90.5203C90.3163 100.86 90.1603 100.704 90.1603 100.5V99.348C90.1603 99.144 90.3163 98.988 90.5203 98.988H95.5363C95.7403 98.988 95.8963 99.144 95.8963 99.348V104.772C95.8963 104.976 95.7403 105.132 95.5363 105.132H92.6323V108.084H94.6363C95.0563 108.084 95.7403 107.988 96.3643 107.832C96.5563 107.784 96.7243 107.88 96.7843 108.036V99.324C96.7843 99.12 96.9403 98.964 97.1443 98.964H98.8483C99.0523 98.964 99.2083 99.12 99.2083 99.324ZM109.603 99.324V102.696H110.779C110.983 102.696 111.139 102.852 111.139 103.056V104.424C111.139 104.628 110.983 104.784 110.779 104.784H109.603V109.632C109.603 109.836 109.447 109.992 109.243 109.992H107.527C107.323 109.992 107.167 109.836 107.167 109.632V109.476C107.119 109.56 107.047 109.62 106.963 109.656C106.099 109.932 105.463 109.956 104.899 109.956H101.131C100.927 109.956 100.771 109.8 100.771 109.596V99.36C100.771 99.156 100.927 99 101.131 99H106.255C106.459 99 106.615 99.156 106.615 99.36V100.512C106.615 100.716 106.459 100.872 106.255 100.872H103.207V108.096H104.959C105.499 108.096 106.087 108.048 106.759 107.868C106.939 107.82 107.083 107.892 107.167 108.024V99.324C107.167 99.12 107.323 98.964 107.527 98.964H109.243C109.447 98.964 109.603 99.12 109.603 99.324Z" fill="#01B74D"/>
<defs>
<linearGradient id="paint0_linear_268_31" x1="64.9995" y1="3.28114" x2="64.9995" y2="83.7198" gradientUnits="userSpaceOnUse">
<stop stop-color="#00FF6A"/>
<stop offset="0.4" stop-color="#13D564"/>
<stop offset="1" stop-color="#00B44B"/>
</linearGradient>
</defs>
</svg>
