<svg width="22" height="20" viewBox="0 0 22 20" fill="none" xmlns="http://www.w3.org/2000/svg">
<path d="M18.7624 4.02789C18.7624 3.42658 18.6199 3.12519 18.4874 2.97403C18.3656 2.83505 18.1371 2.69151 17.6509 2.65459C17.2465 2.6239 16.636 2.75059 15.8604 3.05281C15.1099 3.3453 14.3079 3.76048 13.5599 4.19539C12.8155 4.62822 12.1446 5.06869 11.6589 5.40191C11.4166 5.56813 11.2217 5.70679 11.0883 5.80313C11.0217 5.85126 10.9705 5.8888 10.9365 5.91388C10.9225 5.92419 10.9114 5.93234 10.9034 5.9383C10.8912 5.94829 10.8744 5.96202 10.8531 5.97913C10.8087 6.01488 10.7449 6.06556 10.6638 6.12843C10.5016 6.25409 10.2693 6.42906 9.98262 6.63106C9.41223 7.03298 8.61298 7.55182 7.71431 8.00209C6.82497 8.44767 5.78331 8.85426 4.73786 8.98387C3.68067 9.11493 2.52875 8.96994 1.57282 8.19329C0.990245 7.71998 0.582011 7.22821 0.331482 6.63525C0.0894671 6.06243 0.0298945 5.47364 0.00469899 4.89162C-0.09429 2.60487 1.37527 0.253061 3.98066 0.0167005C5.57046 -0.127524 6.84731 0.690273 7.64253 1.39467C8.05285 1.75814 8.37459 2.12564 8.59358 2.401C8.70378 2.53957 8.78986 2.65718 8.84993 2.74259C8.88001 2.78536 8.90379 2.82022 8.92085 2.8458C8.92938 2.85859 8.93627 2.86916 8.94148 2.87717C8.94406 2.88113 8.9462 2.8845 8.94795 2.88722C8.94884 2.8886 8.9496 2.88988 8.95027 2.89094C8.95061 2.89146 8.95097 2.89193 8.95125 2.89237C8.95138 2.89258 8.95153 2.89285 8.95161 2.89297C8.9518 2.89326 8.952 2.89353 8.11592 3.40446L8.95198 2.89357C9.24403 3.35333 9.10078 3.95827 8.63203 4.24472C8.16343 4.53105 7.54698 4.3907 7.25483 3.93127C7.25338 3.92905 7.25071 3.92518 7.24702 3.91966C7.23843 3.90678 7.22394 3.88524 7.20369 3.85644C7.16308 3.79871 7.10009 3.71229 7.01667 3.6074C6.8484 3.3958 6.60461 3.11846 6.30207 2.85047C5.67156 2.29196 4.93315 1.90028 4.16486 1.96997C2.8916 2.08548 1.93659 3.27715 2.00287 4.80841C2.02575 5.33679 2.07629 5.64116 2.17902 5.8843C2.27324 6.10731 2.44442 6.35431 2.84858 6.68266C3.24489 7.00465 3.77772 7.12559 4.48701 7.03766C5.20803 6.94827 6.01468 6.65096 6.80452 6.25523C7.58498 5.86419 8.2958 5.40431 8.81575 5.03793C9.07424 4.85579 9.28212 4.69918 9.42391 4.5893C9.49473 4.53442 9.54894 4.49132 9.58443 4.46275C9.60214 4.44849 9.61523 4.43781 9.62337 4.43114C9.62741 4.42783 9.63022 4.4255 9.63179 4.4242L9.63301 4.42324C9.64552 4.41284 9.65833 4.40273 9.67134 4.39295L10.2796 5.17143C9.67124 4.393 9.67144 4.39282 9.67159 4.39271C9.67167 4.39265 9.67183 4.39256 9.67195 4.39247C9.67225 4.39225 9.67261 4.39196 9.67305 4.39163C9.67393 4.39097 9.67512 4.3901 9.67659 4.389C9.67954 4.38679 9.68366 4.3837 9.68892 4.37978C9.69948 4.37191 9.71466 4.36056 9.73421 4.34613C9.7733 4.31729 9.83 4.27584 9.90242 4.22353C10.0472 4.11895 10.2554 3.9709 10.5127 3.79442C11.026 3.44222 11.7404 2.97289 12.5401 2.50792C13.3363 2.04502 14.2375 1.57448 15.1219 1.2298C15.9814 0.894871 16.9378 0.632972 17.8051 0.698802C18.6532 0.763174 19.4421 1.05426 20.0039 1.69507C20.555 2.32373 20.7624 3.1474 20.7624 4.02789C20.7624 5.92346 19.2757 8.45684 16.4022 9.11055C15.1124 9.40396 14.0023 9.20629 13.1043 9.07115C12.187 8.9331 11.4399 8.84676 10.5577 9.09726C8.61363 9.6493 6.81332 11.7508 5.81294 14.0361C5.32293 15.1555 5.07677 16.2087 5.07856 16.9908C5.08041 17.7969 5.32062 17.9927 5.41425 18.0372C5.4313 18.0389 5.49102 18.041 5.61421 18.0073C5.80819 17.9543 6.07029 17.8371 6.40425 17.6388C7.07478 17.2406 7.84689 16.6312 8.67952 15.9595C9.48138 15.3125 10.3465 14.6016 11.1204 14.0989C11.5088 13.8466 11.9203 13.6155 12.3283 13.4706C12.7097 13.3353 13.2122 13.2307 13.7243 13.3847L13.7739 13.4005L13.8299 13.4201C14.1084 13.5232 14.364 13.6966 14.5526 13.9553C14.7469 14.2219 14.8181 14.5077 14.8396 14.7419C14.8782 15.1639 14.7654 15.6061 14.7002 15.8663C14.699 15.8708 14.6979 15.8753 14.6967 15.8798C14.8633 15.7638 15.0523 15.6262 15.2725 15.4675C15.693 15.1645 16.2198 14.7933 16.7669 14.5517C17.3108 14.3115 18.0574 14.1179 18.8199 14.4337C20.0823 14.9566 20.3957 16.2003 20.5628 16.6502C20.623 16.812 20.6652 16.9002 20.6897 16.9459C20.717 16.9438 20.755 16.9391 20.8059 16.9293C21.3477 16.8242 21.8737 17.1698 21.9808 17.7012C22.0879 18.2326 21.7356 18.7486 21.1938 18.8537C20.5422 18.9801 19.9087 18.8995 19.4044 18.4717C18.9809 18.1126 18.7905 17.6091 18.6838 17.3221C18.4037 16.5684 18.3311 16.3607 18.0418 16.2408C18.0285 16.2353 17.9195 16.194 17.588 16.3404C17.2597 16.4854 16.8913 16.7352 16.4566 17.0484C16.0685 17.3281 15.5794 17.6963 15.1358 17.9241C14.759 18.1176 13.9022 18.4779 13.1513 17.8832C12.5886 17.4374 12.5355 16.8071 12.5599 16.4201C12.5825 16.0613 12.6885 15.6712 12.7503 15.4279C12.6009 15.5025 12.426 15.6037 12.2248 15.7344C11.5592 16.1667 10.792 16.7952 9.95003 17.4745C9.13881 18.129 8.25547 18.8326 7.44014 19.3168C7.03118 19.5597 6.59269 19.7762 6.15119 19.8969C5.7115 20.0171 5.17638 20.0667 4.65229 19.8516C3.41827 19.3452 3.08103 18.073 3.07856 16.9952C3.07596 15.8625 3.41697 14.5375 3.97517 13.2623C5.07119 10.7585 7.21062 8.00544 10.0015 7.21295C11.3387 6.83326 12.4677 6.99079 13.4077 7.13225C14.367 7.27662 15.0955 7.39412 15.9503 7.19966C17.8354 6.77081 18.7624 5.09602 18.7624 4.02789ZM7.25544 3.93223C7.25602 3.93311 7.25624 3.93353 7.25618 3.93342C7.25611 3.93331 7.25583 3.933 7.25557 3.93259C7.25544 3.93239 7.25536 3.93213 7.2552 3.93187C7.25511 3.93173 7.25488 3.93146 7.25483 3.93139V3.93127C7.25507 3.93163 7.25527 3.93196 7.25544 3.93223Z" fill="#00B44B"/>
</svg>
