<svg width="28" height="28" viewBox="0 0 28 28" fill="none" xmlns="http://www.w3.org/2000/svg">
<circle cx="14" cy="14" r="14" fill="#F8CB6B"/>
<path d="M17.5355 20.8284C17.8452 20.5807 18.1121 20.3021 18.3301 20H9.66987C9.88788 20.3021 10.1548 20.5807 10.4645 20.8284C10.9288 21.1999 11.48 21.4945 12.0866 21.6955C12.6932 21.8965 13.3434 22 14 22C14.6566 22 15.3068 21.8965 15.9134 21.6955C16.52 21.4945 17.0712 21.1999 17.5355 20.8284Z" fill="#CE0303"/>
<path d="M18.6194 19.5307C18.8707 19.0454 19 18.5253 19 18L9 18C9 18.5253 9.12933 19.0454 9.3806 19.5307C9.4643 19.6924 9.56098 19.8491 9.66987 20H18.3301C18.439 19.8491 18.5357 19.6924 18.6194 19.5307Z" fill="white"/>
<path d="M18.6194 19.5307C18.8707 19.0454 19 18.5253 19 18L9 18C9 18.5253 9.12933 19.0454 9.3806 19.5307M18.6194 19.5307C18.3681 20.016 17.9998 20.457 17.5355 20.8284M18.6194 19.5307C18.5357 19.6924 18.439 19.8491 18.3301 20M17.5355 20.8284C17.0712 21.1999 16.52 21.4945 15.9134 21.6955C15.3068 21.8965 14.6566 22 14 22C13.3434 22 12.6932 21.8965 12.0866 21.6955C11.48 21.4945 10.9288 21.1999 10.4645 20.8284M17.5355 20.8284C17.8452 20.5807 18.1121 20.3021 18.3301 20M10.4645 20.8284C10.0002 20.457 9.63188 20.016 9.3806 19.5307M10.4645 20.8284C10.1548 20.5807 9.88788 20.3021 9.66987 20M9.3806 19.5307C9.4643 19.6924 9.56098 19.8491 9.66987 20M9.66987 20H18.3301" stroke="#1D1D1D" stroke-linecap="round" stroke-linejoin="round"/>
<path d="M23 14C23 12.9391 22.6839 11.9217 22.1213 11.1716C21.5587 10.4214 20.7956 10 20 10C19.2044 10 18.4413 10.4214 17.8787 11.1716C17.3161 11.9217 17 12.9391 17 14" stroke="#1D1D1D" stroke-linecap="round"/>
<path d="M11 14C11 12.9391 10.6839 11.9217 10.1213 11.1716C9.55871 10.4214 8.79565 10 8 10C7.20435 10 6.44129 10.4214 5.87868 11.1716C5.31607 11.9217 5 12.9391 5 14" stroke="#1D1D1D" stroke-linecap="round"/>
<path d="M6 8C6 8 6.5 7 8 7C9.5 7 10 8 10 8" stroke="#1D1D1D" stroke-linecap="round"/>
<path d="M18 8C18 8 18.5 7 20 7C21.5 7 22 8 22 8" stroke="#1D1D1D" stroke-linecap="round"/>
</svg>
