<svg width="22" height="24" viewBox="0 0 22 24" fill="none" xmlns="http://www.w3.org/2000/svg">
<path d="M0 22.3134V9.73654C0 9.15483 0.253264 8.60195 0.693765 8.22202L9.65465 0.493452C10.4175 -0.164483 11.5825 -0.164484 12.3453 0.493451L21.3062 8.22202C21.7467 8.60195 22 9.15483 22 9.73654V22.3134C22 23.2449 21.2423 24 20.3077 24H15.6538C14.7405 24 14 23.2595 14 22.3462V19.359C14 18.2544 13.1046 17.359 12 17.359H10C8.89543 17.359 8 18.2544 8 19.359V22.3462C8 23.2596 7.25954 24 6.34615 24H1.69231C0.757672 24 0 23.2449 0 22.3134Z" fill="#D5D5D5"/>
</svg>
