<svg width="28" height="28" viewBox="0 0 28 28" fill="none" xmlns="http://www.w3.org/2000/svg">
<path d="M28 14C28 21.732 21.732 28 14 28C6.26801 28 0 21.732 0 14C0 6.26801 6.26801 0 14 0C21.732 0 28 6.26801 28 14Z" fill="#F8CB6B"/>
<path d="M10.5 13C10.5 13.3174 10.3103 13.687 9.84375 13.998C9.37694 14.3092 8.7147 14.5 8 14.5C7.2853 14.5 6.62306 14.3092 6.15625 13.998C5.68971 13.687 5.5 13.3174 5.5 13C5.5 12.7239 5.27614 12.5 5 12.5C4.72386 12.5 4.5 12.7239 4.5 13C4.5 13.7434 4.94289 14.391 5.60156 14.8301C6.25996 15.269 7.12349 15.5 8 15.5C8.87651 15.5 9.74004 15.269 10.3984 14.8301C11.0571 14.391 11.5 13.7434 11.5 13C11.5 12.7239 11.2761 12.5 11 12.5C10.7239 12.5 10.5 12.7239 10.5 13Z" fill="#1D1D1D"/>
<path d="M22.5 13C22.5 13.3174 22.3103 13.687 21.8438 13.998C21.3769 14.3092 20.7147 14.5 20 14.5C19.2853 14.5 18.6231 14.3092 18.1562 13.998C17.6897 13.687 17.5 13.3174 17.5 13C17.5 12.7239 17.2761 12.5 17 12.5C16.7239 12.5 16.5 12.7239 16.5 13C16.5 13.7434 16.9429 14.391 17.6016 14.8301C18.26 15.269 19.1235 15.5 20 15.5C20.8765 15.5 21.74 15.269 22.3984 14.8301C23.0571 14.391 23.5 13.7434 23.5 13C23.5 12.7239 23.2761 12.5 23 12.5C22.7239 12.5 22.5 12.7239 22.5 13Z" fill="#1D1D1D"/>
<path d="M14 18.5C15.0659 18.5 15.694 18.6579 16.6778 19.0322C17.2523 19.2508 17.9158 19.6521 18.4151 19.9805C18.6694 20.1477 18.8898 20.3024 19.0469 20.415C19.1255 20.4714 19.1888 20.5176 19.2325 20.5498C19.2542 20.5658 19.2716 20.5782 19.2832 20.5869C19.2889 20.5912 19.2928 20.5953 19.2959 20.5977C19.2973 20.5987 19.299 20.599 19.2998 20.5996L19.3018 20.6016C19.5218 20.7682 19.565 21.0816 19.3985 21.3018C19.2527 21.4942 18.9949 21.5513 18.7852 21.4512L18.6983 21.3984C18.6978 21.3981 18.6965 21.3974 18.6953 21.3965C18.6929 21.3947 18.6887 21.3915 18.6836 21.3877C18.6735 21.3802 18.6584 21.369 18.6387 21.3545C18.5985 21.3248 18.5392 21.2808 18.4649 21.2275C18.3158 21.1207 18.1059 20.9747 17.8653 20.8164C17.3747 20.4938 16.7882 20.1451 16.3223 19.9678C15.4192 19.6242 14.9137 19.5 14 19.5C13.0864 19.5 12.5808 19.6242 11.6778 19.9678C11.2119 20.1451 10.6253 20.4938 10.1348 20.8164C9.89415 20.9747 9.68423 21.1207 9.53519 21.2275C9.46083 21.2808 9.40156 21.3248 9.36136 21.3545C9.34169 21.369 9.32652 21.3802 9.31644 21.3877C9.31135 21.3915 9.30714 21.3947 9.30472 21.3965L9.30179 21.3984C9.08163 21.565 8.76823 21.5218 8.60159 21.3018C8.43505 21.0816 8.47824 20.7682 8.69827 20.6016L8.70022 20.5996C8.70108 20.599 8.70276 20.5987 8.70413 20.5977C8.70726 20.5953 8.71111 20.5912 8.71683 20.5869C8.7285 20.5782 8.7459 20.5658 8.76761 20.5498C8.81124 20.5176 8.87452 20.4714 8.95315 20.415C9.11029 20.3024 9.3307 20.1477 9.58499 19.9805C10.0842 19.6521 10.7478 19.2508 11.3223 19.0322C12.3061 18.6579 12.9342 18.5 14 18.5Z" fill="#1D1D1D"/>
<path d="M11.3779 8.20164C11.6536 8.21819 11.8637 8.45512 11.8471 8.73077C11.8306 9.00641 11.5937 9.21651 11.318 9.19996L4.62186 8.79804C4.34621 8.78149 4.13611 8.54457 4.15266 8.26892C4.16921 7.99327 4.40613 7.78318 4.68178 7.79972L11.3779 8.20164Z" fill="#1D1D1D"/>
<path d="M16.6221 8.20164C16.3464 8.21819 16.1363 8.45512 16.1529 8.73077C16.1694 9.00641 16.4063 9.21651 16.682 9.19996L23.3781 8.79804C23.6538 8.78149 23.8639 8.54457 23.8473 8.26892C23.8308 7.99327 23.5939 7.78318 23.3182 7.79972L16.6221 8.20164Z" fill="#1D1D1D"/>
</svg>
