<svg width="22" height="27" viewBox="0 0 22 27" fill="none" xmlns="http://www.w3.org/2000/svg">
<path d="M11 0C12.5188 0 13.75 1.20883 13.75 2.7C13.75 2.7376 13.7448 2.77484 13.7433 2.81206C17.6483 3.45213 20.625 6.78422 20.625 10.8V17.9139C21.4463 18.3809 22 19.2511 22 20.25C22 21.7412 20.7688 22.95 19.25 22.95H15.125C15.125 25.1868 13.2782 27 11 27C8.72183 27 6.875 25.1868 6.875 22.95H2.75C1.23122 22.95 0 21.7412 0 20.25C0 19.2511 0.55367 18.3809 1.375 17.9139V10.8C1.375 6.78467 4.35095 3.45266 8.25537 2.81206C8.25382 2.77486 8.25 2.73758 8.25 2.7C8.25 1.20883 9.48122 0 11 0Z" fill="#08C456"/>
</svg>
